# xmcd CD database file
# Copyright (C) 1993-1998 Ti Kan
#
# Track frame offsets:
#	183
#	26193
#	50270
#
# Disc length: 822 seconds
#
# Revision: 1
# Processed by: cddbd v1.4b41PL1 Copyright (c) Steve Scherf et al.
# Submitted via: CDValet v3.31 - Copyright (c) 1997 Greg Leichner
#
DISCID=1f033403
DTITLE=Bear - Bugs
DYEAR=1900
DGENRE=
TTITLE0=Bugs
TTITLE1=Backbone
TTITLE2=Sandcastle
EXTD=
EXTT0=
EXTT1=
EXTT2=
PLAYORDER=
